<?xml version="1.0" encoding="UTF-8"?>
<svg xmlns="http://www.w3.org/2000/svg" xmlns:xlink="http://www.w3.org/1999/xlink" width="400px" height="456px" viewBox="0 0 400 455" version="1.1">
<g id="surface1">
<path style=" stroke:none;fill-rule:evenodd;fill:rgb(89.803922%,89.803922%,89.803922%);fill-opacity:1;" d="M -0.203125 -0.230469 L 399.796875 -0.230469 L 399.796875 454.769531 L -0.203125 454.769531 Z M -0.203125 -0.230469 "/>
<path style=" stroke:none;fill-rule:evenodd;fill:rgb(70.196078%,70.980392%,70.588235%);fill-opacity:1;" d="M 236.53125 165.054688 C 236.613281 166.457031 236.75 167.847656 236.9375 169.230469 L 261.019531 169.230469 C 267.335938 170.6875 271.484375 174.867188 273.46875 181.769531 C 273.742188 206.527344 273.742188 231.292969 273.46875 256.054688 C 272.210938 264.140625 268.058594 269.015625 261.019531 270.679688 C 219.929688 270.988281 178.84375 270.988281 137.753906 270.679688 C 131.171875 268.609375 127.296875 263.734375 126.121094 256.054688 C 125.785156 231.289062 125.851562 206.527344 126.328125 181.769531 C 127.078125 178.125 128.707031 175.109375 131.222656 172.714844 C 132.902344 171.140625 134.804688 170.058594 136.9375 169.464844 C 145.507812 169.230469 154.082031 169.152344 162.652344 169.230469 C 162.953125 162.433594 164.246094 155.933594 166.53125 149.730469 C 167.570312 148.085938 168.863281 146.769531 170.410156 145.785156 C 189.726562 145.476562 209.046875 145.476562 228.367188 145.785156 C 230.988281 147.0625 232.960938 149.152344 234.285156 152.054688 C 235.035156 156.390625 235.785156 160.722656 236.53125 165.054688 Z M 236.53125 165.054688 "/>
<path style=" stroke:none;fill-rule:evenodd;fill:rgb(81.568627%,81.568627%,81.568627%);fill-opacity:1;" d="M 236.53125 165.054688 C 237.046875 166.171875 237.320312 167.40625 237.347656 168.769531 C 245.242188 168.613281 253.140625 168.769531 261.019531 169.230469 L 236.9375 169.230469 C 236.75 167.847656 236.613281 166.457031 236.53125 165.054688 Z M 236.53125 165.054688 "/>
<path style=" stroke:none;fill-rule:evenodd;fill:rgb(89.803922%,89.803922%,89.803922%);fill-opacity:1;" d="M 195.714844 180.375 C 212.679688 179.53125 224.71875 187.734375 231.835938 204.980469 C 236.699219 221.445312 233.910156 235.917969 223.46875 248.394531 C 211.921875 259.160156 199.128906 261.480469 185.101562 255.355469 C 169.011719 245.046875 162.816406 229.492188 166.53125 208.695312 C 171.46875 192.78125 181.195312 183.339844 195.714844 180.375 Z M 195.714844 180.375 "/>
<path style=" stroke:none;fill-rule:evenodd;fill:rgb(70.196078%,70.980392%,70.588235%);fill-opacity:1;" d="M 223.0625 222.625 C 222.542969 223.742188 222.269531 224.980469 222.246094 226.339844 C 219.34375 237.84375 212.675781 244.34375 202.246094 245.839844 C 199.515625 245.917969 196.785156 245.761719 194.082031 245.375 C 184.582031 242.230469 178.804688 235.113281 176.734375 224.019531 C 175.453125 208.613281 181.234375 198.476562 194.082031 193.605469 C 203.535156 191.820312 211.492188 194.839844 217.960938 202.660156 C 221.925781 208.535156 223.625 215.191406 223.0625 222.625 Z M 223.0625 222.625 "/>
<path style=" stroke:none;fill-rule:evenodd;fill:rgb(78.039216%,78.039216%,78.039216%);fill-opacity:1;" d="M 223.0625 222.625 C 223.144531 224.015625 222.875 225.253906 222.246094 226.339844 C 222.269531 224.980469 222.542969 223.742188 223.0625 222.625 Z M 223.0625 222.625 "/>
<path style=" stroke:none;fill-rule:evenodd;fill:rgb(78.823529%,78.823529%,78.823529%);fill-opacity:1;" d="M 194.082031 245.375 C 196.785156 245.761719 199.515625 245.917969 202.246094 245.839844 C 199.867188 246.375 197.421875 246.453125 194.898438 246.070312 C 194.523438 245.941406 194.25 245.710938 194.082031 245.375 Z M 194.082031 245.375 "/>
<path style=" stroke:none;fill-rule:evenodd;fill:rgb(81.176471%,81.176471%,81.176471%);fill-opacity:1;" d="M 104.285156 282.054688 L 104.285156 302.945312 L 106.328125 302.945312 L 106.328125 282.054688 C 106.734375 289.164062 106.871094 296.289062 106.734375 303.410156 L 103.878906 303.410156 C 103.742188 296.289062 103.878906 289.164062 104.285156 282.054688 Z M 104.285156 282.054688 "/>
<path style=" stroke:none;fill-rule:evenodd;fill:rgb(70.196078%,70.196078%,70.196078%);fill-opacity:1;" d="M 104.285156 282.054688 L 106.328125 282.054688 L 106.328125 302.945312 L 104.285156 302.945312 Z M 104.285156 282.054688 "/>
<path style=" stroke:none;fill-rule:evenodd;fill:rgb(71.372549%,71.372549%,71.372549%);fill-opacity:1;" d="M 286.328125 282.054688 L 288.773438 282.054688 L 288.773438 302.945312 L 286.734375 302.945312 C 286.824219 302.402344 286.6875 301.9375 286.328125 301.554688 C 282.964844 304.390625 280.175781 303.773438 277.960938 299.695312 C 276.300781 295.59375 276.777344 291.878906 279.386719 288.554688 C 281.742188 287.191406 283.988281 287.34375 286.121094 289.019531 C 286.328125 286.703125 286.394531 284.378906 286.328125 282.054688 Z M 286.328125 282.054688 "/>
<path style=" stroke:none;fill-rule:evenodd;fill:rgb(70.980392%,70.980392%,70.980392%);fill-opacity:1;" d="M 292.859375 282.054688 L 295.304688 282.054688 C 295.328125 287.324219 295.191406 292.582031 294.898438 297.839844 C 294.359375 297.917969 293.882812 297.761719 293.46875 297.375 C 293.144531 292.273438 292.941406 287.164062 292.859375 282.054688 Z M 292.859375 282.054688 "/>
<path style=" stroke:none;fill-rule:evenodd;fill:rgb(73.72549%,73.72549%,73.72549%);fill-opacity:1;" d="M 214.898438 287.625 C 214.5625 286.324219 214.359375 284.929688 214.285156 283.445312 C 214.210938 284.398438 214.003906 285.335938 213.671875 286.230469 C 213.351562 285.65625 213.144531 285.027344 213.0625 284.375 C 212.984375 285.550781 212.78125 286.632812 212.449219 287.625 C 211.933594 285.214844 212.613281 283.511719 214.488281 282.519531 C 214.890625 284.1875 215.03125 285.910156 214.898438 287.625 Z M 214.898438 287.625 "/>
<path style=" stroke:none;fill-rule:evenodd;fill:rgb(81.568627%,81.568627%,81.568627%);fill-opacity:1;" d="M 150 287.625 C 151.160156 286.964844 152.246094 287.121094 153.265625 288.089844 C 152.199219 287.816406 151.101562 287.660156 150 287.625 Z M 150 287.625 "/>
<path style=" stroke:none;fill-rule:evenodd;fill:rgb(70.196078%,70.196078%,70.196078%);fill-opacity:1;" d="M 230.816406 285.769531 C 230.429688 286.425781 230.292969 287.199219 230.410156 288.089844 L 233.265625 288.089844 L 233.265625 289.480469 C 232.351562 289.34375 231.539062 289.5 230.816406 289.945312 C 230.410156 294.039062 230.273438 298.21875 230.410156 302.480469 L 228.773438 302.480469 L 228.773438 289.480469 L 226.734375 289.480469 L 226.734375 288.089844 C 227.386719 288.214844 227.929688 288.058594 228.367188 287.625 C 227.820312 282.90625 229.585938 280.972656 233.671875 281.820312 C 234.035156 282.449219 234.167969 283.148438 234.082031 283.910156 C 233.257812 283.835938 232.429688 283.914062 231.632812 284.144531 C 231.03125 284.472656 230.757812 285.011719 230.816406 285.769531 Z M 230.816406 285.769531 "/>
<path style=" stroke:none;fill-rule:evenodd;fill:rgb(78.431373%,78.431373%,78.431373%);fill-opacity:1;" d="M 230.816406 285.769531 L 230.816406 287.625 L 233.671875 287.625 C 233.78125 288.367188 233.648438 288.988281 233.265625 289.480469 L 233.265625 288.089844 L 230.410156 288.089844 C 230.292969 287.199219 230.429688 286.425781 230.816406 285.769531 Z M 230.816406 285.769531 "/>
<path style=" stroke:none;fill-rule:evenodd;fill:rgb(70.980392%,70.980392%,70.980392%);fill-opacity:1;" d="M 110.816406 302.945312 L 110.816406 288.089844 L 112.449219 288.089844 C 112.394531 288.496094 112.53125 288.804688 112.859375 289.019531 C 115.484375 287.046875 117.929688 287.199219 120.203125 289.480469 C 122.253906 287.621094 124.570312 287.15625 127.140625 288.089844 C 127.316406 288.632812 127.585938 289.097656 127.960938 289.480469 C 128.367188 293.960938 128.503906 298.445312 128.367188 302.945312 L 126.328125 302.945312 C 126.394531 299.226562 126.328125 295.515625 126.121094 291.804688 C 125.933594 291.140625 125.59375 290.597656 125.101562 290.179688 C 124.03125 289.949219 122.929688 289.871094 121.835938 289.945312 C 121.925781 290.957031 121.585938 291.734375 120.816406 292.269531 C 120.613281 295.824219 120.542969 299.386719 120.613281 302.945312 L 118.570312 302.945312 C 118.707031 298.917969 118.570312 294.886719 118.164062 290.875 C 115.542969 289.160156 113.84375 289.933594 113.0625 293.195312 C 112.855469 296.441406 112.789062 299.695312 112.859375 302.945312 Z M 110.816406 302.945312 "/>
<path style=" stroke:none;fill-rule:evenodd;fill:rgb(82.352941%,82.352941%,82.352941%);fill-opacity:1;" d="M 183.46875 288.089844 C 183.785156 287.789062 184.195312 287.632812 184.695312 287.625 C 185.414062 287.84375 186.097656 288.15625 186.734375 288.554688 C 185.996094 289.871094 185.589844 289.714844 185.511719 288.089844 Z M 183.46875 288.089844 "/>
<path style=" stroke:none;fill-rule:evenodd;fill:rgb(80.784314%,80.784314%,80.784314%);fill-opacity:1;" d="M 214.898438 287.625 L 217.347656 287.625 L 217.347656 289.945312 L 214.898438 289.945312 C 215.476562 289.503906 216.15625 289.351562 216.9375 289.480469 L 216.9375 288.089844 C 216.15625 288.222656 215.476562 288.066406 214.898438 287.625 Z M 214.898438 287.625 "/>
<path style=" stroke:none;fill-rule:evenodd;fill:rgb(71.372549%,71.372549%,71.372549%);fill-opacity:1;" d="M 238.164062 287.625 C 245.507812 287.304688 248.160156 291.171875 246.121094 299.230469 C 242.785156 304.476562 239.113281 304.785156 235.101562 300.160156 C 233.984375 297.269531 233.847656 294.328125 234.695312 291.339844 C 235.550781 289.667969 236.707031 288.429688 238.164062 287.625 Z M 238.164062 287.625 "/>
<path style=" stroke:none;fill-rule:evenodd;fill:rgb(80%,80%,80%);fill-opacity:1;" d="M 251.632812 288.089844 L 249.589844 288.089844 L 249.589844 299.695312 C 249.1875 295.757812 249.050781 291.734375 249.183594 287.625 C 250.097656 287.488281 250.910156 287.644531 251.632812 288.089844 Z M 251.632812 288.089844 "/>
<path style=" stroke:none;fill-rule:evenodd;fill:rgb(70.588235%,70.588235%,70.588235%);fill-opacity:1;" d="M 251.632812 288.089844 C 251.5625 291.808594 251.632812 295.523438 251.835938 299.230469 C 253.789062 301.707031 255.695312 301.550781 257.550781 298.769531 C 257.75 298.171875 257.820312 297.539062 257.753906 296.910156 C 258.160156 294.058594 258.296875 291.117188 258.164062 288.089844 L 259.796875 288.089844 L 259.796875 302.480469 L 258.164062 302.480469 C 258.226562 301.855469 258.160156 301.222656 257.960938 300.625 C 255.863281 303.648438 253.414062 304.113281 250.613281 302.019531 C 250.167969 301.292969 249.824219 300.511719 249.589844 299.695312 L 249.589844 288.089844 Z M 251.632812 288.089844 "/>
<path style=" stroke:none;fill-rule:evenodd;fill:rgb(80.784314%,80.784314%,80.784314%);fill-opacity:1;" d="M 263.878906 288.089844 C 264.121094 287.792969 264.460938 287.636719 264.898438 287.625 C 265.535156 287.882812 266.152344 288.191406 266.734375 288.554688 C 265.996094 289.871094 265.589844 289.714844 265.511719 288.089844 Z M 263.878906 288.089844 "/>
<path style=" stroke:none;fill-rule:evenodd;fill:rgb(71.372549%,71.372549%,71.372549%);fill-opacity:1;" d="M 134.488281 287.625 C 136.398438 287.550781 138.304688 287.625 140.203125 287.855469 C 140.949219 288.316406 141.632812 288.859375 142.246094 289.480469 C 142.585938 293.1875 142.789062 296.902344 142.859375 300.625 C 143.019531 301.261719 143.226562 301.878906 143.46875 302.480469 C 142.554688 302.933594 141.601562 303.089844 140.613281 302.945312 L 140.613281 301.554688 C 139.371094 302.054688 138.144531 302.597656 136.9375 303.179688 C 132.65625 303.878906 130.820312 301.792969 131.429688 296.910156 L 133.265625 294.820312 C 135.527344 294.171875 137.855469 293.78125 140.203125 293.660156 C 140.179688 289.996094 138.542969 288.679688 135.304688 289.714844 C 134.609375 290.355469 134.0625 291.128906 133.671875 292.035156 C 133.007812 292.265625 132.324219 292.34375 131.632812 292.269531 C 131.984375 290.21875 132.9375 288.671875 134.488281 287.625 Z M 134.488281 287.625 "/>
<path style=" stroke:none;fill-rule:evenodd;fill:rgb(70.588235%,70.980392%,70.588235%);fill-opacity:1;" d="M 272.449219 302.945312 C 272.515625 299.074219 272.449219 295.207031 272.246094 291.339844 C 272.089844 291.082031 271.882812 290.925781 271.632812 290.875 C 269.824219 289.515625 268.125 289.671875 266.53125 291.339844 C 265.972656 295.179688 265.765625 299.066406 265.917969 302.945312 L 263.878906 302.945312 L 263.878906 288.089844 L 265.511719 288.089844 C 265.589844 289.714844 265.996094 289.871094 266.734375 288.554688 C 269.109375 287.222656 271.421875 287.378906 273.671875 289.019531 C 273.878906 289.480469 274.082031 289.945312 274.285156 290.410156 C 274.488281 294.585938 274.558594 298.765625 274.488281 302.945312 Z M 272.449219 302.945312 "/>
<path style=" stroke:none;fill-rule:evenodd;fill:rgb(70.980392%,70.980392%,70.980392%);fill-opacity:1;" d="M 150 287.625 C 151.105469 287.660156 152.191406 287.8125 153.265625 288.089844 C 153.769531 288.191406 154.175781 288.5 154.488281 289.019531 C 154.851562 288.636719 154.988281 288.171875 154.898438 287.625 C 155.679688 287.492188 156.359375 287.648438 156.9375 288.089844 C 157.050781 293.972656 156.914062 299.859375 156.53125 305.730469 C 154.761719 308.699219 152.3125 309.707031 149.183594 308.75 C 147.09375 308.257812 146.007812 306.789062 145.917969 304.339844 C 147.460938 303.957031 148.414062 304.578125 148.773438 306.195312 C 149.179688 306.90625 149.792969 307.214844 150.613281 307.125 C 151.175781 307.117188 151.652344 306.964844 152.039062 306.660156 C 154.28125 305.820312 155.097656 304.117188 154.488281 301.554688 C 150.855469 304.011719 147.929688 303.242188 145.714844 299.230469 C 145.359375 296.253906 145.496094 293.3125 146.125 290.410156 C 147.058594 288.796875 148.351562 287.867188 150 287.625 Z M 150 287.625 "/>
<path style=" stroke:none;fill-rule:evenodd;fill:rgb(75.294118%,75.294118%,75.294118%);fill-opacity:1;" d="M 258.164062 302.480469 L 259.796875 302.480469 L 259.796875 288.089844 L 258.164062 288.089844 C 258.296875 291.117188 258.160156 294.058594 257.753906 296.910156 L 257.753906 287.625 L 260.203125 287.625 L 260.203125 302.945312 C 259.421875 303.078125 258.742188 302.921875 258.164062 302.480469 Z M 258.164062 302.480469 "/>
<path style=" stroke:none;fill-rule:evenodd;fill:rgb(76.470588%,76.470588%,76.470588%);fill-opacity:1;" d="M 112.449219 288.089844 L 110.816406 288.089844 L 110.816406 302.945312 C 110.410156 297.851562 110.273438 292.734375 110.410156 287.625 C 111.191406 287.492188 111.871094 287.648438 112.449219 288.089844 Z M 112.449219 288.089844 "/>
<path style=" stroke:none;fill-rule:evenodd;fill:rgb(70.588235%,70.588235%,70.588235%);fill-opacity:1;" d="M 193.671875 289.480469 C 194.046875 293.804688 194.183594 298.144531 194.082031 302.480469 L 192.449219 302.480469 C 192.582031 298.992188 192.445312 295.585938 192.039062 292.269531 C 192.050781 291.503906 191.777344 290.886719 191.226562 290.410156 C 188.445312 289.105469 186.675781 290.035156 185.917969 293.195312 C 185.515625 296.203125 185.378906 299.300781 185.511719 302.480469 L 183.878906 302.480469 C 184.386719 297.699219 184.386719 292.875 183.878906 288.089844 L 185.511719 288.089844 C 185.589844 289.714844 185.996094 289.871094 186.734375 288.554688 C 187.675781 287.835938 188.765625 287.523438 190 287.625 C 191.5625 287.519531 192.785156 288.140625 193.671875 289.480469 Z M 193.671875 289.480469 "/>
<path style=" stroke:none;fill-rule:evenodd;fill:rgb(78.039216%,78.039216%,78.039216%);fill-opacity:1;" d="M 212.449219 287.625 C 212.160156 288.042969 211.75 288.199219 211.226562 288.089844 L 211.226562 289.480469 C 211.75 289.371094 212.160156 289.527344 212.449219 289.945312 L 210.816406 289.945312 L 210.816406 287.625 Z M 212.449219 287.625 "/>
<path style=" stroke:none;fill-rule:evenodd;fill:rgb(81.960784%,81.960784%,81.960784%);fill-opacity:1;" d="M 152.449219 289.945312 C 151.625 289.871094 150.792969 289.949219 150 290.179688 C 149.507812 290.816406 148.964844 291.359375 148.367188 291.804688 C 149.15625 289.550781 150.515625 288.933594 152.449219 289.945312 Z M 152.449219 289.945312 "/>
<path style=" stroke:none;fill-rule:evenodd;fill:rgb(89.411765%,89.411765%,89.411765%);fill-opacity:1;" d="M 238.980469 289.480469 C 243.910156 289.609375 245.613281 292.394531 244.082031 297.839844 C 242.917969 301.039062 240.945312 301.890625 238.164062 300.394531 C 235.738281 296.382812 236.011719 292.742188 238.980469 289.480469 Z M 238.980469 289.480469 "/>
<path style=" stroke:none;fill-rule:evenodd;fill:rgb(89.019608%,89.019608%,89.019608%);fill-opacity:1;" d="M 281.429688 289.480469 C 285.617188 289.617188 287.316406 292.09375 286.53125 296.910156 C 286.085938 300.054688 284.523438 301.371094 281.835938 300.855469 C 280.800781 300.375 280.121094 299.523438 279.796875 298.304688 C 279.324219 296.324219 279.253906 294.273438 279.589844 292.269531 C 280.113281 291.226562 280.726562 290.296875 281.429688 289.480469 Z M 281.429688 289.480469 "/>
<path style=" stroke:none;fill-rule:evenodd;fill:rgb(89.411765%,89.411765%,89.411765%);fill-opacity:1;" d="M 152.449219 289.945312 C 153.507812 290.296875 154.253906 291.070312 154.695312 292.269531 C 155.273438 295.191406 154.796875 297.824219 153.265625 300.160156 C 149.234375 301.578125 147.328125 299.878906 147.550781 295.054688 C 147.476562 293.796875 147.75 292.714844 148.367188 291.804688 C 148.964844 291.359375 149.507812 290.816406 150 290.179688 C 150.804688 289.949219 151.621094 289.871094 152.449219 289.945312 Z M 152.449219 289.945312 "/>
<path style=" stroke:none;fill-rule:evenodd;fill:rgb(76.470588%,76.470588%,76.470588%);fill-opacity:1;" d="M 212.449219 289.945312 C 212.742188 294.066406 213.015625 298.242188 213.265625 302.480469 C 213.015625 302.429688 212.808594 302.277344 212.652344 302.019531 C 212.449219 297.996094 212.382812 293.972656 212.449219 289.945312 Z M 212.449219 289.945312 "/>
<path style=" stroke:none;fill-rule:evenodd;fill:rgb(71.372549%,71.372549%,71.372549%);fill-opacity:1;" d="M 200.203125 287.625 C 208.289062 287.117188 211.078125 291.296875 208.570312 300.160156 C 205.960938 303.507812 202.902344 304.203125 199.386719 302.25 C 195.886719 297.046875 196.160156 292.171875 200.203125 287.625 Z M 200.203125 287.625 "/>
<path style=" stroke:none;fill-rule:evenodd;fill:rgb(89.411765%,89.411765%,89.411765%);fill-opacity:1;" d="M 201.429688 289.480469 C 206.125 289.179688 207.960938 291.65625 206.9375 296.910156 C 206.363281 300.4375 204.527344 301.75 201.429688 300.855469 C 200.671875 300.132812 200.058594 299.285156 199.589844 298.304688 C 199.320312 296.144531 199.320312 293.960938 199.589844 291.804688 C 200.285156 291.097656 200.898438 290.320312 201.429688 289.480469 Z M 201.429688 289.480469 "/>
<path style=" stroke:none;fill-rule:evenodd;fill:rgb(76.470588%,76.470588%,76.470588%);fill-opacity:1;" d="M 228.367188 287.625 C 227.929688 288.058594 227.386719 288.214844 226.734375 288.089844 L 226.734375 289.480469 L 228.773438 289.480469 L 228.773438 302.480469 L 230.410156 302.480469 C 230.273438 298.21875 230.410156 294.039062 230.816406 289.945312 L 230.816406 302.945312 L 228.367188 302.945312 L 228.367188 289.945312 L 226.328125 289.945312 L 226.328125 287.625 Z M 228.367188 287.625 "/>
<path style=" stroke:none;fill-rule:evenodd;fill:rgb(73.333333%,73.333333%,73.333333%);fill-opacity:1;" d="M 183.46875 288.089844 L 183.878906 288.089844 C 184.386719 292.875 184.386719 297.699219 183.878906 302.480469 L 185.511719 302.480469 C 185.378906 299.300781 185.515625 296.203125 185.917969 293.195312 L 185.917969 302.945312 L 183.46875 302.945312 Z M 183.46875 288.089844 "/>
<path style=" stroke:none;fill-rule:evenodd;fill:rgb(76.470588%,76.470588%,76.470588%);fill-opacity:1;" d="M 193.671875 289.480469 C 193.96875 289.675781 194.171875 289.988281 194.285156 290.410156 C 194.488281 294.585938 194.558594 298.765625 194.488281 302.945312 L 192.039062 302.945312 L 192.039062 292.269531 L 192.039062 302.945312 L 194.488281 302.945312 C 194.558594 298.765625 194.488281 294.585938 194.285156 290.410156 C 194.171875 289.988281 193.96875 289.675781 193.671875 289.480469 Z M 193.671875 289.480469 "/>
<path style=" stroke:none;fill-rule:evenodd;fill:rgb(80.784314%,80.784314%,80.784314%);fill-opacity:1;" d="M 271.632812 290.875 C 271.882812 290.925781 272.089844 291.082031 272.246094 291.339844 C 272.449219 295.207031 272.515625 299.074219 272.449219 302.945312 C 272.152344 298.925781 271.878906 294.902344 271.632812 290.875 Z M 271.632812 290.875 "/>
<path style=" stroke:none;fill-rule:evenodd;fill:rgb(86.27451%,86.27451%,86.27451%);fill-opacity:1;" d="M 162.246094 296.445312 C 165.433594 295.984375 168.699219 295.832031 172.039062 295.980469 C 172.429688 297.300781 172.292969 298.535156 171.632812 299.695312 L 171.632812 298.304688 L 169.589844 298.304688 C 170.171875 297.863281 170.851562 297.707031 171.632812 297.839844 L 171.632812 296.445312 Z M 162.246094 296.445312 "/>
<path style=" stroke:none;fill-rule:evenodd;fill:rgb(89.803922%,89.803922%,89.803922%);fill-opacity:1;" d="M 138.980469 295.519531 L 140.203125 295.519531 C 140.75 299.226562 139.390625 301.082031 136.121094 301.089844 C 133.878906 301.082031 133.128906 299.84375 133.878906 297.375 C 135.523438 296.398438 137.222656 295.777344 138.980469 295.519531 Z M 138.980469 295.519531 "/>
<path style=" stroke:none;fill-rule:evenodd;fill:rgb(83.137255%,83.137255%,83.137255%);fill-opacity:1;" d="M 156.9375 288.089844 C 157.414062 293.578125 157.480469 299.152344 157.140625 304.804688 C 157.03125 305.226562 156.824219 305.539062 156.53125 305.730469 C 156.914062 299.859375 157.050781 293.972656 156.9375 288.089844 Z M 156.9375 288.089844 "/>
<path style=" stroke:none;fill-rule:evenodd;fill:rgb(89.803922%,89.803922%,89.803922%);fill-opacity:1;" d="M 162.246094 296.445312 L 171.632812 296.445312 L 171.632812 297.839844 C 170.851562 297.707031 170.171875 297.863281 169.589844 298.304688 C 168.132812 301.144531 166.09375 301.765625 163.46875 300.160156 C 162.828125 299.011719 162.414062 297.75 162.246094 296.445312 Z M 162.246094 296.445312 "/>
<path style=" stroke:none;fill-rule:evenodd;fill:rgb(70.980392%,70.980392%,70.980392%);fill-opacity:1;" d="M 214.898438 287.625 C 215.476562 288.066406 216.15625 288.222656 216.9375 288.089844 L 216.9375 289.480469 C 216.15625 289.351562 215.476562 289.503906 214.898438 289.945312 L 214.898438 300.625 L 216.9375 300.625 L 216.9375 302.945312 L 214.898438 302.945312 C 214.246094 303.070312 213.699219 302.914062 213.265625 302.480469 C 213.015625 298.242188 212.742188 294.066406 212.449219 289.945312 C 212.160156 289.527344 211.75 289.371094 211.226562 289.480469 L 211.226562 288.089844 C 211.75 288.199219 212.160156 288.042969 212.449219 287.625 C 212.78125 286.632812 212.984375 285.550781 213.0625 284.375 C 213.148438 285.042969 213.355469 285.660156 213.671875 286.230469 C 214.003906 285.335938 214.210938 284.398438 214.285156 283.445312 C 214.359375 284.929688 214.5625 286.324219 214.898438 287.625 Z M 214.898438 287.625 "/>
<path style=" stroke:none;fill-rule:evenodd;fill:rgb(71.764706%,71.764706%,71.764706%);fill-opacity:1;" d="M 172.039062 295.980469 C 168.699219 295.832031 165.433594 295.984375 162.246094 296.445312 C 162.414062 297.75 162.828125 299.011719 163.46875 300.160156 C 166.09375 301.765625 168.132812 301.144531 169.589844 298.304688 L 171.632812 298.304688 L 171.632812 299.695312 C 169.492188 303.164062 166.636719 304.167969 163.0625 302.714844 C 160.089844 300.003906 159.070312 296.523438 160 292.269531 C 161.382812 287.917969 164.039062 286.449219 167.960938 287.855469 C 170.953125 289.472656 172.316406 292.183594 172.039062 295.980469 Z M 172.039062 295.980469 "/>
<path style=" stroke:none;fill-rule:evenodd;fill:rgb(89.411765%,89.411765%,89.411765%);fill-opacity:1;" d="M 164.695312 289.480469 C 167.511719 289.128906 169.140625 290.523438 169.589844 293.660156 L 162.246094 293.660156 C 162.421875 291.761719 163.238281 290.367188 164.695312 289.480469 Z M 164.695312 289.480469 "/>
<path style=" stroke:none;fill-rule:evenodd;fill:rgb(70.980392%,70.980392%,70.980392%);fill-opacity:1;" d="M 292.859375 300.160156 L 295.304688 300.160156 L 295.304688 302.945312 L 292.859375 302.945312 Z M 292.859375 300.160156 "/>
<path style=" stroke:none;fill-rule:evenodd;fill:rgb(80.784314%,80.784314%,80.784314%);fill-opacity:1;" d="M 216.9375 300.625 C 217.332031 301.445312 217.46875 302.375 217.347656 303.410156 C 216.433594 303.546875 215.617188 303.390625 214.898438 302.945312 L 216.9375 302.945312 Z M 216.9375 300.625 "/>
<path style=" stroke:none;fill-rule:evenodd;fill:rgb(79.607843%,79.607843%,79.607843%);fill-opacity:1;" d="M 148.773438 306.195312 C 149.824219 306.550781 150.933594 306.707031 152.039062 306.660156 C 151.652344 306.964844 151.175781 307.117188 150.613281 307.125 C 149.792969 307.214844 149.179688 306.90625 148.773438 306.195312 Z M 148.773438 306.195312 "/>
</g>
</svg>
